<?xml version="1.0" encoding="utf-8"?>
<!-- Generator: Adobe Illustrator 15.1.0, SVG Export Plug-In . SVG Version: 6.00 Build 0)  -->
<!DOCTYPE svg PUBLIC "-//W3C//DTD SVG 1.1//EN" "http://www.w3.org/Graphics/SVG/1.1/DTD/svg11.dtd">
<svg version="1.1" id="Layer_1" xmlns="http://www.w3.org/2000/svg" xmlns:xlink="http://www.w3.org/1999/xlink" x="0px" y="0px"
	 width="70px" height="86px" viewBox="0 0 70 86" enable-background="new 0 0 70 86" xml:space="preserve">
<g>
	<path fill="#2E3436" d="M56.724,0c0,0,0,47.247,0,54.635c-3.055,8.67-9.656,16.551-17.242,16.748c-5.91,0-39.625,0-39.625,0V0
		H56.724z"/>
</g>
<g>
	<path fill="#B9B9BA" d="M5.164,35.482c-2.702,0-5.313-0.007-6.642-0.012l-1.297-13.959l20.46-0.962l-0.087,9.722
		c-0.273,0.546-0.516,1.046-0.738,1.502c-1.498,3.079-1.793,3.592-3.424,3.652C12.41,35.462,9.549,35.482,5.164,35.482z"/>
	<path fill="#C9C9C9" d="M16.675,21.598L16.6,30.031c-0.233,0.47-0.445,0.903-0.64,1.304c-1.484,3.05-1.565,3.053-2.561,3.09
		c-1.014,0.037-3.862,0.057-8.235,0.057c-2.177,0-4.295-0.005-5.73-0.009l-1.116-12.013L16.675,21.598 M18.694,19.5l-22.562,1.061
		l1.478,15.906c0,0,3.685,0.016,7.554,0.016c3.454,0,7.054-0.013,8.309-0.059c2.66-0.099,2.94-1.577,5.123-5.912L18.694,19.5
		L18.694,19.5z"/>
</g>
<g>
	<path fill="#B9B9BA" d="M5.087,30.483c-2.674,0-5.249-0.007-6.565-0.012l-1.297-13.96l20.46-0.962l-0.087,9.722
		c-0.273,0.546-0.516,1.046-0.738,1.502c-1.498,3.079-1.793,3.591-3.424,3.651C12.403,30.462,9.517,30.483,5.087,30.483z"/>
	<path fill="#C9C9C9" d="M16.675,16.598L16.6,25.031c-0.233,0.47-0.445,0.903-0.64,1.304c-1.484,3.05-1.565,3.053-2.562,3.09
		c-1.02,0.038-3.894,0.058-8.312,0.058c-2.149,0-4.235-0.005-5.654-0.009l-1.116-12.013L16.675,16.598 M18.694,14.5l-22.562,1.061
		l1.478,15.906c0,0,3.637,0.015,7.477,0.015c3.477,0,7.121-0.012,8.385-0.059c2.66-0.098,2.94-1.577,5.123-5.912L18.694,14.5
		L18.694,14.5z"/>
</g>
<g>
	<path fill="#989B9C" d="M55.663,57.296c-1.592,1.828-3.183,3.701-5.192,5.138c-1.985,1.452-4.362,2.406-6.832,2.728
		c-1.244,0.175-2.479,0.159-3.684,0.198l-3.646,0.093l-7.291,0.186l-29.162,0.744v-3l29.162,0.744l7.291,0.186l3.646,0.093
		c1.225,0.023,2.425,0.1,3.6-0.004c2.367-0.183,4.686-0.968,6.7-2.283C52.289,60.821,53.978,59.04,55.663,57.296z"/>
</g>
<rect x="-0.143" y="-3" fill="#2E3436" width="56.867" height="8.079"/>
<g>
	<path fill="#B9B9BA" d="M5.087,23.841c-2.674,0-5.249-0.007-6.565-0.012L-2.775,9.87l20.46-0.962l-0.087,9.722
		c-0.273,0.546-0.516,1.046-0.738,1.502c-1.498,3.079-1.793,3.591-3.424,3.651C12.403,23.821,9.517,23.841,5.087,23.841z"/>
	<path fill="#C9C9C9" d="M16.675,9.956L16.6,18.39c-0.233,0.47-0.445,0.903-0.64,1.304c-1.484,3.05-1.565,3.053-2.562,3.09
		c-1.02,0.038-3.894,0.058-8.312,0.058c-2.149,0-4.235-0.005-5.654-0.009l-1.116-12.013L16.675,9.956 M18.694,7.859L-3.868,8.92
		l1.478,15.906c0,0,3.637,0.015,7.477,0.015c3.477,0,7.121-0.012,8.385-0.059c2.66-0.098,2.94-1.577,5.123-5.912L18.694,7.859
		L18.694,7.859z"/>
</g>
<path fill="#FFFFFF" d="M19.103,0c0,0,0,6.259,0,6.456c-3.211,5.024-3.766,9.261-10.853,9.261c-7.086,0-9.655,0-9.655,0V0H19.103z"
	/>
</svg>
