<?xml version="1.0" encoding="utf-8"?>
<!-- Generator: Adobe Illustrator 15.1.0, SVG Export Plug-In . SVG Version: 6.00 Build 0)  -->
<!DOCTYPE svg PUBLIC "-//W3C//DTD SVG 1.1//EN" "http://www.w3.org/Graphics/SVG/1.1/DTD/svg11.dtd">
<svg version="1.1" id="Layer_2" xmlns="http://www.w3.org/2000/svg" xmlns:xlink="http://www.w3.org/1999/xlink" x="0px" y="0px"
	 width="220px" height="92px" viewBox="56.111 -2.377 220 92" enable-background="new 56.111 -2.377 220 92" xml:space="preserve">
<rect x="56.125" y="39.508" fill="#2E3436" width="219.973" height="11"/>
<rect x="53.58" y="50.508" fill="#FFFFFF" width="225" height="3"/>

<!-- pb_marker -->
<rect x="56.111" y="53.508" fill="#5F0044" width="219.986" height="36.738"/>

<linearGradient id="SVGID_1_" gradientUnits="userSpaceOnUse" x1="70.5381" y1="60.3342" x2="97.1236" y2="86.9198">
	<stop  offset="0" style="stop-color:#555753"/>
	<stop  offset="1" style="stop-color:#000000"/>
</linearGradient>
<ellipse fill="url(#SVGID_1_)" cx="83.83" cy="73.627" rx="20.75" ry="16.619"/>
<linearGradient id="SVGID_2_" gradientUnits="userSpaceOnUse" x1="219.5381" y1="60.3342" x2="246.1236" y2="86.9198">
	<stop  offset="0" style="stop-color:#555753"/>
	<stop  offset="1" style="stop-color:#000000"/>
</linearGradient>
<ellipse fill="url(#SVGID_2_)" cx="232.83" cy="73.627" rx="20.75" ry="16.619"/>
<linearGradient id="SVGID_3_" gradientUnits="userSpaceOnUse" x1="84.0801" y1="3.5076" x2="84.0801" y2="88.0085">
	<stop  offset="0" style="stop-color:#8E8A8A"/>
	<stop  offset="0.1359" style="stop-color:#B2AFAF"/>
	<stop  offset="0.2766" style="stop-color:#D1CECE"/>
	<stop  offset="0.3958" style="stop-color:#E3E1E1"/>
	<stop  offset="0.4785" style="stop-color:#EAE8E8"/>
	<stop  offset="0.6448" style="stop-color:#DEDCDC"/>
	<stop  offset="0.9437" style="stop-color:#BFBEBE"/>
	<stop  offset="1" style="stop-color:#B8B7B7"/>
</linearGradient>
<path fill="url(#SVGID_3_)" d="M96.08,81.156c0,3.784-3.173,6.853-7.087,6.853h-9.826c-3.914,0-7.087-3.068-7.087-6.853V10.36
	c0-3.784,3.173-6.853,7.087-6.853h9.826c3.914,0,7.087,3.068,7.087,6.853V81.156z"/>
<linearGradient id="SVGID_4_" gradientUnits="userSpaceOnUse" x1="233.0801" y1="3.5076" x2="233.0801" y2="88.0085">
	<stop  offset="0" style="stop-color:#8E8A8A"/>
	<stop  offset="0.1359" style="stop-color:#B2AFAF"/>
	<stop  offset="0.2766" style="stop-color:#D1CECE"/>
	<stop  offset="0.3958" style="stop-color:#E3E1E1"/>
	<stop  offset="0.4785" style="stop-color:#EAE8E8"/>
	<stop  offset="0.6448" style="stop-color:#DEDCDC"/>
	<stop  offset="0.9437" style="stop-color:#BFBEBE"/>
	<stop  offset="1" style="stop-color:#B8B7B7"/>
</linearGradient>
<path fill="url(#SVGID_4_)" d="M245.08,81.156c0,3.784-3.173,6.853-7.087,6.853h-9.826c-3.914,0-7.087-3.068-7.087-6.853V10.36
	c0-3.784,3.173-6.853,7.087-6.853h9.826c3.914,0,7.087,3.068,7.087,6.853V81.156z"/>
</svg>
